<?xml version="1.0" encoding="UTF-8"?>
<svg version="1.1" xmlns="http://www.w3.org/2000/svg" width="500" height="500">
<path d="M0 0 C165 0 330 0 500 0 C500 165 500 330 500 500 C335 500 170 500 0 500 C0 335 0 170 0 0 Z " fill="#000000" transform="translate(0,0)"/>
<path d="M0 0 C1.23105469 -0.00515625 2.46210938 -0.0103125 3.73046875 -0.015625 C6.8125 0.25 6.8125 0.25 8.8125 2.25 C9.0078125 4.8515625 9.0078125 4.8515625 8.9375 7.875 C8.91945313 8.87789062 8.90140625 9.88078125 8.8828125 10.9140625 C8.85960937 11.68492188 8.83640625 12.45578125 8.8125 13.25 C9.36035156 13.25257812 9.90820312 13.25515625 10.47265625 13.2578125 C17.1669223 13.58436206 22.56800758 15.50424495 28.63305664 18.16650391 C32.01476785 19.63287428 34.04646583 20.25 37.8125 20.25 C39.59010758 18.73990073 39.59010758 18.73990073 41.0625 16.75 C41.58328125 16.1003125 42.1040625 15.450625 42.640625 14.78125 C43.02734375 14.2759375 43.4140625 13.770625 43.8125 13.25 C48.31669983 14.10409827 50.84267333 16.72747469 54.0625 19.8125 C54.61679687 20.33263672 55.17109375 20.85277344 55.7421875 21.38867188 C57.10506828 22.66930985 58.45961683 23.9588049 59.8125 25.25 C58.6067326 27.8306696 57.55988149 29.5314892 55.625 31.6875 C53.53733871 34.05232238 53.53733871 34.05232238 54.0234375 36.6171875 C54.87116924 39.44575775 56.01351336 41.46927363 57.625 43.9375 C64.8125 55.48945783 64.8125 55.48945783 64.8125 61.25 C66.20275391 61.23259766 66.20275391 61.23259766 67.62109375 61.21484375 C68.81863281 61.20582031 70.01617187 61.19679687 71.25 61.1875 C72.44496094 61.17589844 73.63992188 61.16429687 74.87109375 61.15234375 C77.8125 61.25 77.8125 61.25 78.8125 62.25 C79.13033553 65.23706543 79.37427879 68.19202835 79.5625 71.1875 C79.63082031 72.02474609 79.69914063 72.86199219 79.76953125 73.72460938 C79.81980469 74.52576172 79.87007812 75.32691406 79.921875 76.15234375 C79.99873535 77.25823853 79.99873535 77.25823853 80.07714844 78.38647461 C79.98981445 79.00143799 79.90248047 79.61640137 79.8125 80.25 C76.39155758 82.53062828 75.13062778 82.46925007 71.125 82.375 C70.13113281 82.35695313 69.13726562 82.33890625 68.11328125 82.3203125 C67.35402344 82.29710938 66.59476563 82.27390625 65.8125 82.25 C65.915625 83.28125 66.01875 84.3125 66.125 85.375 C66.16528802 92.85514234 62.9182336 101.0913996 58.8125 107.25 C58.67943843 109.23366695 58.67943843 109.23366695 59.8125 111.25 C61.71309648 113.09268357 63.70311623 114.6343018 65.8125 116.25 C65.30404416 120.88542241 63.46535356 123.47238144 60.5625 127.0625 C59.79421875 128.03832031 59.0259375 129.01414063 58.234375 130.01953125 C55.8125 132.25 55.8125 132.25 53.22265625 132.76171875 C50.39287663 132.16090655 49.41187539 131.38418648 47.5 129.25 C46.73236328 128.4146875 46.73236328 128.4146875 45.94921875 127.5625 C45.57410156 127.129375 45.19898438 126.69625 44.8125 126.25 C41.3333868 127.52121444 38.55161085 129.01209155 35.5625 131.1875 C30.4464115 134.68663076 25.09519691 137.25 18.8125 137.25 C18.83570313 138.16523438 18.85890625 139.08046875 18.8828125 140.0234375 C18.90085937 141.21195313 18.91890625 142.40046875 18.9375 143.625 C18.96070313 144.80835938 18.98390625 145.99171875 19.0078125 147.2109375 C18.8125 150.25 18.8125 150.25 16.8125 152.25 C14.94897461 152.49291992 14.94897461 152.49291992 12.71484375 152.48046875 C11.91369141 152.47853516 11.11253906 152.47660156 10.28710938 152.47460938 C9.44986328 152.46236328 8.61261719 152.45011719 7.75 152.4375 C6.48833008 152.4365332 6.48833008 152.4365332 5.20117188 152.43554688 C-1.04726816 152.39023184 -1.04726816 152.39023184 -2.1875 151.25 C-2.42113881 149.40108054 -2.60053635 147.54511969 -2.75 145.6875 C-2.87568359 144.16962891 -2.87568359 144.16962891 -3.00390625 142.62109375 C-3.06449219 141.83863281 -3.12507813 141.05617187 -3.1875 140.25 C-9.63805733 138.6100278 -15.81966481 137.87692857 -22.46484375 137.49609375 C-25.1875 137.25 -25.1875 137.25 -27.1875 136.25 C-28.52424326 136.90980276 -29.85705051 137.57759657 -31.1875 138.25 C-35.69076151 139.11542271 -39.59406402 139.22217791 -43.58203125 136.7890625 C-46.74226992 134.09004785 -48.85675903 132.24222291 -50.1875 128.25 C-50.21751743 124.9223534 -50.12098973 121.60755507 -50.02734375 118.28125 C-49.93857565 115.07085685 -49.93857565 115.07085685 -52.1875 112.25 C-52.105 111.095 -52.0225 109.94 -51.9375 108.75 C-51.74439563 103.55549233 -54.26510482 99.90805494 -56.875 95.5703125 C-58.1875 93.25 -58.1875 93.25 -58.1875 91.25 C-58.8475 91.415 -59.5075 91.58 -60.1875 91.75 C-63.91849794 92.37183299 -67.40623378 92.31408926 -71.1875 92.25 C-73.62568586 85.6973755 -73.61999199 79.18998781 -73.1875 72.25 C-71.37634044 70.43884044 -68.57471773 70.86800552 -66.125 70.6875 C-65.02027344 70.60371094 -63.91554688 70.51992187 -62.77734375 70.43359375 C-61.92269531 70.37300781 -61.06804687 70.31242187 -60.1875 70.25 C-60.0946875 68.4246875 -60.0946875 68.4246875 -60 66.5625 C-59.29784197 60.04688654 -56.68407389 54.25422133 -54.1875 48.25 C-53.51889309 46.58411074 -52.85150341 44.9177295 -52.1875 43.25 C-56.1475 39.785 -56.1475 39.785 -60.1875 36.25 C-59.07086978 31.78347913 -57.05779209 29.3725092 -54.125 26 C-53.41633789 25.16855469 -53.41633789 25.16855469 -52.69335938 24.3203125 C-51.53091033 22.958251 -50.36002145 21.60340044 -49.1875 20.25 C-44.05150844 21.0112117 -41.96087907 22.82763294 -38.1875 26.25 C-34.97885931 25.14702976 -32.26581838 23.71340695 -29.4375 21.875 C-23.9935221 18.40033986 -18.73880358 15.25 -12.1875 15.25 C-12.1875 10.96 -12.1875 6.67 -12.1875 2.25 C-7.4496472 0.35485888 -4.96421251 -0.02092397 0 0 Z " fill="#F4F4F4" transform="translate(354.1875,30.75)"/>
<path d="M0 0 C2.97 0 5.94 0 9 0 C9.06058594 0.78246094 9.12117188 1.56492188 9.18359375 2.37109375 C9.26738281 3.38300781 9.35117187 4.39492188 9.4375 5.4375 C9.51871094 6.44683594 9.59992188 7.45617188 9.68359375 8.49609375 C9.73211468 10.93640779 9.73211468 10.93640779 11 12 C12.67063611 12.27631386 14.34204066 12.54861263 16.01660156 12.80004883 C23.76894457 13.9948576 30.23067863 16.06696649 37.12548828 19.83837891 C40.52754556 21.71832355 40.52754556 21.71832355 44.25 21.36328125 C46.71737792 19.44114979 48.85157208 17.26778503 51 15 C53.49361571 16.20381448 55.68143083 17.45428722 58 19 C56.97953467 22.061396 56.18909411 23.82171126 53.8125 26.0625 C53.214375 26.701875 52.61625 27.34125 52 28 C52.35450475 31.55259019 54.12146603 33.72365134 56.25 36.5 C61.42966517 43.68984323 64.26474818 51.63334739 67 60 C70.96 60.33 74.92 60.66 79 61 C79 63.64 79 66.28 79 69 C73.555 69.99 73.555 69.99 68 71 C67.84144531 71.94359375 67.68289063 72.8871875 67.51953125 73.859375 C65.81337164 83.24796598 63.34246741 91.67763792 58.84765625 100.1796875 C57.82850569 102.03361166 57.82850569 102.03361166 58 104.4375 C59.46014374 108.17911832 61.79951643 109.61666117 65 112 C63.0709374 115.66521894 61.77070649 117.3327868 58 119 C57.54109375 118.55527344 57.0821875 118.11054688 56.609375 117.65234375 C55.99578125 117.08644531 55.3821875 116.52054687 54.75 115.9375 C54.14671875 115.36902344 53.5434375 114.80054688 52.921875 114.21484375 C51.09554991 112.79487627 51.09554991 112.79487627 49 113.140625 C46.75540395 114.10509987 45.14195889 115.26844264 43.25 116.8125 C35.96636353 122.46850821 27.84232481 125.57269515 19 128 C19 131.96 19 135.92 19 140 C16.03 140 13.06 140 10 140 C8.29221657 136.58443314 8.37712092 132.77120917 8 129 C3.38 128.01 -1.24 127.02 -6 126 C-6.58409377 122.78748428 -6.79956005 121.10022962 -6 118 C2.07700722 107.28636054 16.03110524 101.75575197 28.4375 97.875 C34.89453434 95.85350915 40.13718356 93.89857244 45 89 C45.6084375 88.43925781 46.216875 87.87851563 46.84375 87.30078125 C53.98159138 80.08732715 57.23187935 70.92586762 57.5625 60.875 C57.05946069 48.63890855 52.03559395 39.72958144 43.4375 31.3125 C35.8915183 25.04574186 26.64801961 22.15243715 16.90625 22.65234375 C5.31779307 24.03859733 -3.53590552 28.36093706 -10.9375 37.5625 C-16.22040728 44.63666331 -17.7740527 51.3245965 -19.25 59.875 C-21.46000917 71.7688047 -24.30267514 84.97134848 -33 94 C-35.140625 94.70703125 -35.140625 94.70703125 -37.25 94.8125 C-38.4875 94.874375 -39.725 94.93625 -41 95 C-42.00732399 93.06629769 -43.00563288 91.12789694 -44 89.1875 C-44.556875 88.10855469 -45.11375 87.02960938 -45.6875 85.91796875 C-47 83 -47 83 -47 80 C-51.29 79.67 -55.58 79.34 -60 79 C-60 76.36 -60 73.72 -60 71 C-54.555 70.505 -54.555 70.505 -49 70 C-48.83564453 68.76636719 -48.83564453 68.76636719 -48.66796875 67.5078125 C-47.22902439 57.37670831 -45.46540401 48.69037062 -39.890625 40.0078125 C-38.82919339 38.04607601 -38.82919339 38.04607601 -39.16796875 35.9140625 C-40.13918993 33.67979781 -41.1392531 32.72312529 -43.0625 31.25 C-44.5165625 30.13625 -44.5165625 30.13625 -46 29 C-45.65120368 25.74456771 -44.97866739 24.98126893 -42.4375 22.75 C-41.633125 22.1725 -40.82875 21.595 -40 21 C-39.55269531 21.44472656 -39.10539062 21.88945313 -38.64453125 22.34765625 C-38.03996094 22.91355469 -37.43539063 23.47945312 -36.8125 24.0625 C-36.22082031 24.63097656 -35.62914062 25.19945313 -35.01953125 25.78515625 C-33.04337472 27.22753538 -33.04337472 27.22753538 -30.55859375 26.890625 C-27.6565638 25.88045274 -25.69030916 24.54963133 -23.25 22.6875 C-16.25737508 17.62459056 -9.39885266 14.83247694 -1 13 C-0.505 6.565 -0.505 6.565 0 0 Z " fill="#040404" transform="translate(348,37)"/>
<path d="M0 0 C7.14574647 5.85628846 12.02710706 13.36958851 12.9765625 22.6875 C13.10527142 34.06536869 10.98729275 42.00162386 3.03125 50.35546875 C-2.8473218 55.35993919 -9.87948101 57.99840695 -17.171875 60.265625 C-29.47797973 64.17973946 -39.795038 70.80061755 -49.359375 79.390625 C-51.669375 77.740625 -53.979375 76.090625 -56.359375 74.390625 C-54.29015655 69.70477581 -50.98797085 66.10674798 -47.70703125 62.22265625 C-45.39548682 59.51408854 -45.39548682 59.51408854 -43.66796875 56.96484375 C-41.09497082 53.43745059 -39.52355056 51.66774164 -35.17578125 50.6328125 C-31.671875 50.203125 -31.671875 50.203125 -28.34765625 50.03515625 C-25.19304273 49.62839582 -25.19304273 49.62839582 -22.99609375 47.12109375 C-20.59806127 43.12055747 -20.5300745 39.92303959 -21.359375 35.390625 C-23.47329377 31.89172496 -24.47673559 30.68483814 -28.359375 29.390625 C-34.17767206 28.85486927 -34.17767206 28.85486927 -39.296875 31.265625 C-41.39821084 33.21660112 -41.39821084 33.21660112 -42.359375 35.390625 C-42.23369141 36.70353516 -42.23369141 36.70353516 -42.10546875 38.04296875 C-41.62145714 43.19554806 -41.38946549 46.91526969 -44.30078125 51.34375 C-46.90273726 54.12446635 -49.61690636 56.74915379 -52.359375 59.390625 C-53.93257671 61.26037272 -55.47708634 63.15484628 -56.984375 65.078125 C-57.63664062 65.90699219 -58.28890625 66.73585938 -58.9609375 67.58984375 C-59.42242187 68.18410156 -59.88390625 68.77835937 -60.359375 69.390625 C-65.53947855 66.88100962 -65.53947855 66.88100962 -67.359375 64.390625 C-66.97978787 61.0059731 -65.29423069 58.33615458 -63.62939453 55.41772461 C-57.93922286 45.4195001 -54.79796118 35.6080098 -53.421875 24.140625 C-52.28362061 15.23428367 -48.83336328 7.72074688 -42.359375 1.390625 C-28.57255464 -8.37993253 -14.30376576 -9.75687333 0 0 Z " fill="#030303" transform="translate(387.359375,71.609375)"/>
<path d="M0 0 C7.92 0 15.84 0 24 0 C25.44688546 4.34065639 26.43451213 7.93614942 27.125 12.375 C27.29257812 13.43460937 27.46015625 14.49421875 27.6328125 15.5859375 C27.75398438 16.38257813 27.87515625 17.17921875 28 18 C28.66 18 29.32 18 30 18 C30 12.06 30 6.12 30 0 C37.59 0 45.18 0 53 0 C53 19.47 53 38.94 53 59 C44.75 59 36.5 59 28 59 C26.125 52.0625 26.125 52.0625 25.54736328 49.87524414 C25.09047145 48.23263148 24.54693784 46.61486393 24 45 C23.34 44.67 22.68 44.34 22 44 C22 48.95 22 53.9 22 59 C14.74 59 7.48 59 0 59 C0 39.53 0 20.06 0 0 Z " fill="#F8F8F8" transform="translate(229,268)"/>
<path d="M0 0 C5.61 -0.0825 11.22 -0.165 17 -0.25 C18.75441406 -0.28641602 20.50882813 -0.32283203 22.31640625 -0.36035156 C23.73175845 -0.3720513 25.14712428 -0.38224007 26.5625 -0.390625 C27.27728516 -0.41108887 27.99207031 -0.43155273 28.72851562 -0.45263672 C35.63224662 -0.45733953 40.76822803 1.86967221 45.75 6.625 C46.90234375 8.21875 46.90234375 8.21875 48 10 C48.58974609 10.94359375 48.58974609 10.94359375 49.19140625 11.90625 C53.80650594 21.03996647 53.5941094 33.51626658 51.1875 43.3046875 C48.06661376 50.43504564 42.40178998 54.25535627 35.32543945 57.06005859 C31.539974 58.13002717 28.34528777 58.2267623 24.4140625 58.1953125 C23.12967285 58.19031738 21.8452832 58.18532227 20.52197266 58.18017578 C18.90597168 58.16196777 17.2899707 58.14375977 15.625 58.125 C10.46875 58.08375 5.3125 58.0425 0 58 C0 38.86 0 19.72 0 0 Z " fill="#FCFCFC" transform="translate(216,171)"/>
<path d="M0 0 C2.00615601 -0.02459766 4.01183679 -0.08119249 6.01733398 -0.13818359 C18.17014436 -0.24860792 18.17014436 -0.24860792 22.54223633 3.77514648 C28.61916121 11.13016383 28.48597763 18.47794218 28.40600586 27.78759766 C28.44177734 29.69508789 28.44177734 29.69508789 28.47827148 31.64111328 C28.46491943 40.22648447 27.29779014 46.48580819 21.40063477 52.92578125 C13.95554631 59.70930027 4.33697921 58.99244395 -5.09790039 58.81494141 C-11.00018628 58.47739061 -15.07613983 56.68247385 -19.15649414 52.35009766 C-19.48649414 52.02009766 -19.81649414 51.69009766 -20.15649414 51.35009766 C-20.28039517 49.96554158 -20.33702207 48.57486112 -20.36523438 47.18505859 C-20.38452499 46.30033875 -20.40381561 45.4156189 -20.4236908 44.50408936 C-20.48126078 40.44384586 -20.53072876 36.3837848 -20.56152344 32.32324219 C-20.58310008 30.18147657 -20.61719878 28.03979905 -20.6640625 25.8984375 C-20.73098657 22.81421433 -20.7585121 19.73181906 -20.77758789 16.64697266 C-20.80541855 15.69159607 -20.83324921 14.73621948 -20.86192322 13.75189209 C-20.84181353 7.24803288 -20.84181353 7.24803288 -18.84890747 4.63684082 C-12.88055378 -0.44555259 -7.52415392 0.06749756 0 0 Z " fill="#FCFCFC" transform="translate(305.156494140625,268.64990234375)"/>
<path d="M0 0 C0.85574112 0.00565979 1.71148224 0.01131958 2.59315491 0.01715088 C5.30357836 0.03938993 8.01263816 0.08956075 10.72265625 0.140625 C12.56964225 0.16070622 14.41664915 0.17895414 16.26367188 0.1953125 C20.77177044 0.23579834 25.27695255 0.31410669 29.78515625 0.390625 C29.78515625 6.000625 29.78515625 11.610625 29.78515625 17.390625 C16.42015625 17.885625 16.42015625 17.885625 2.78515625 18.390625 C2.45515625 19.380625 2.12515625 20.370625 1.78515625 21.390625 C2.77515625 21.41640625 3.76515625 21.4421875 4.78515625 21.46875 C13.57487167 21.80257892 20.68705301 22.29252176 27.16015625 28.765625 C30.3902485 33.98346633 31.73534097 39.26594033 30.78515625 45.390625 C28.94353344 50.46189175 26.65190297 54.87060022 21.7578125 57.46557617 C17.64620853 58.74504952 13.82695663 58.63796802 9.546875 58.5859375 C8.22572441 58.58169266 8.22572441 58.58169266 6.87788391 58.57736206 C4.0760008 58.56620333 1.27444209 58.54110671 -1.52734375 58.515625 C-3.431636 58.50558963 -5.33593327 58.49646475 -7.24023438 58.48828125 C-11.89856172 58.46627809 -16.55664781 58.43177794 -21.21484375 58.390625 C-21.21484375 52.780625 -21.21484375 47.170625 -21.21484375 41.390625 C-8.83984375 40.895625 -8.83984375 40.895625 3.78515625 40.390625 C4.11515625 39.400625 4.44515625 38.410625 4.78515625 37.390625 C3.62757812 37.36484375 2.47 37.3390625 1.27734375 37.3125 C-0.26175503 37.25619151 -1.80081608 37.1988448 -3.33984375 37.140625 C-4.10039063 37.12644531 -4.8609375 37.11226562 -5.64453125 37.09765625 C-10.88952854 36.87157878 -14.14692336 35.98777715 -18.21484375 32.390625 C-22.30827216 26.12906714 -22.08195261 19.62479035 -21.21484375 12.390625 C-19.31877196 6.8962303 -16.34863055 4.08487584 -11.2809906 1.24978638 C-7.58463095 -0.28726286 -3.94808581 -0.09977226 0 0 Z " fill="#FCFCFC" transform="translate(107.21484375,170.609375)"/>
<path d="M0 0 C7.26 0 14.52 0 22 0 C22.875 10.4375 22.875 10.4375 23.13623047 13.73217773 C23.21244629 14.58239502 23.28866211 15.4326123 23.3671875 16.30859375 C23.44050293 17.18314209 23.51381836 18.05769043 23.58935547 18.95874023 C23.72486816 19.63235596 23.86038086 20.30597168 24 21 C24.66 21.33 25.32 21.66 26 22 C25.97679687 21.41734375 25.95359375 20.8346875 25.9296875 20.234375 C25.77630989 13.26664944 26.72561544 6.84981699 28 0 C35.59 0 43.18 0 51 0 C50.2303706 10.66111633 48.88322131 21.21796923 47.5 31.8125 C47.27189903 33.57744342 47.0440329 35.34241722 46.81640625 37.10742188 C46.39784353 40.34368344 45.97903215 43.57990957 45.55664062 46.81567383 C45.47305298 47.4567659 45.38946533 48.09785797 45.30334473 48.75837708 C44.88615185 51.84130232 44.43996541 54.92024215 44 58 C31.46 58 18.92 58 6 58 C5 46 5 46 7 41 C7.44337985 36.40487087 7.37026969 31.80191962 7.375 27.1875 C7.39949219 25.94162109 7.42398437 24.69574219 7.44921875 23.41210938 C7.4724496 16.11375126 7.03386311 11.15273345 3 5 C2.46036621 4.47817139 1.92073242 3.95634277 1.36474609 3.41870117 C0 2 0 2 0 0 Z " fill="#FCFCFC" transform="translate(329,269)"/>
<path d="M0 0 C8.25 0 16.5 0 25 0 C25.33 11.88 25.66 23.76 26 36 C33.59 36.33 41.18 36.66 49 37 C49 43.93 49 50.86 49 58 C31.84 58 14.68 58 -3 58 C-2 49 -2 49 -1 48 C-0.50073898 42.14819646 -1.13838731 36.8399139 -2.546875 31.17578125 C-3.27420644 27.6833363 -3.249784 24.55942198 -3 21 C-2.34 20.34 -1.68 19.68 -1 19 C-0.63105418 16.96939341 -0.63105418 16.96939341 -0.5859375 14.6484375 C-0.55032715 13.88192871 -0.5147168 13.11541992 -0.47802734 12.32568359 C-0.44402832 11.35195801 -0.4100293 10.37823242 -0.375 9.375 C-0.25125 6.28125 -0.1275 3.1875 0 0 Z " fill="#FDFDFD" transform="translate(141,171)"/>
<path d="M0 0 C16.17 0 32.34 0 49 0 C49 5.61 49 11.22 49 17 C46.43605469 17.09087891 46.43605469 17.09087891 43.8203125 17.18359375 C41.58853256 17.26798879 39.3567622 17.35263731 37.125 17.4375 C35.99707031 17.47681641 34.86914062 17.51613281 33.70703125 17.55664062 C32.63066406 17.59853516 31.55429687 17.64042969 30.4453125 17.68359375 C29.45031738 17.72025146 28.45532227 17.75690918 27.43017578 17.79467773 C24.99220499 17.84959532 24.99220499 17.84959532 23 19 C23.33 20.32 23.66 21.64 24 23 C32.25 23.33 40.5 23.66 49 24 C49 27.96 49 31.92 49 36 C36.625 36.495 36.625 36.495 24 37 C24 38.32 24 39.64 24 41 C36.87 41.495 36.87 41.495 50 42 C50 47.28 50 52.56 50 58 C33.17 58 16.34 58 -1 58 C4 53 4 53 6.125 51.1875 C11.48573219 44.93331245 11.49386197 37.45419016 11.4375 29.625 C11.45748047 28.64789063 11.47746094 27.67078125 11.49804688 26.6640625 C11.49063697 15.51956038 7.81861459 7.81861459 0 0 Z " fill="#FCFCFC" transform="translate(259,171)"/>
<path d="M0 0 C9.57 0 19.14 0 29 0 C29.48210937 2.75988281 29.96421875 5.51976562 30.4609375 8.36328125 C30.93415507 11.0707351 31.40750126 13.77816643 31.88085938 16.4855957 C32.20683986 18.35048112 32.53268909 20.21538948 32.85839844 22.08032227 C33.17477268 23.89171036 33.49135932 25.70306136 33.8081665 27.51437378 C34.1172311 29.2822614 34.42562634 31.05026618 34.7333374 32.81838989 C35.65610802 38.10430883 36.62207071 43.37855368 37.68994141 48.63745117 C38.09625898 51.73346314 38 54.8774395 38 58 C28.1 58 18.2 58 8 58 C8 44 8 44 9 42 C10.98 42 12.96 42 15 42 C14.855625 40.85402344 14.71125 39.70804687 14.5625 38.52734375 C14.37477964 36.99742285 14.18729203 35.46747339 14 33.9375 C13.90460938 33.18533203 13.80921875 32.43316406 13.7109375 31.65820312 C13.15428098 27.06578683 12.90170972 22.6257865 13 18 C12.01 18.33 11.02 18.66 10 19 C9.20412582 23.06168704 8.41410556 27.12449299 7.625 31.1875 C7.29242188 32.88422852 7.29242188 32.88422852 6.953125 34.61523438 C5.44774122 42.38567126 4.14644723 50.16864651 3 58 C-0.3 58 -3.6 58 -7 58 C-7.33047023 48.49463267 -6.22051734 39.34695025 -4.97363281 29.94702148 C-4.62451788 27.30885673 -4.28805214 24.66929639 -3.953125 22.02929688 C-3.73251585 20.32802823 -3.51118645 18.62685278 -3.2890625 16.92578125 C-3.19001617 16.14850174 -3.09096985 15.37122223 -2.98892212 14.57038879 C-2.88896942 13.82568832 -2.78901672 13.08098785 -2.68603516 12.3137207 C-2.60165192 11.67183304 -2.51726868 11.02994537 -2.43032837 10.36860657 C-1.79577476 6.87590666 -0.8609711 3.44388439 0 0 Z " fill="#FBFBFB" transform="translate(384,269)"/>
<path d="M0 0 C7.08426587 -0.65595054 12.15900089 0.87526849 18 5 C24.43534019 11.65684647 26.35828218 16.84323169 26.4597168 26.0871582 C26.28241276 33.97102484 22.93075317 38.8250174 17.75 44.4375 C11.19379583 48.16261601 3.53305206 50.23737859 -4 49 C-11.34659645 46.41410414 -16.82019701 42.21722618 -20.3125 35.1875 C-21.08013672 33.69283203 -21.08013672 33.69283203 -21.86328125 32.16796875 C-23 29 -23 29 -23 22 C-15.08 21.67 -7.16 21.34 1 21 C1.020625 17.90625 1.04125 14.8125 1.0625 11.625 C1.071604 10.65127441 1.08070801 9.67754883 1.09008789 8.67431641 C1.09258545 7.90780762 1.09508301 7.14129883 1.09765625 6.3515625 C1.10289307 5.56604004 1.10812988 4.78051758 1.11352539 3.97119141 C1.12573953 1.92227332 1.12573953 1.92227332 0 0 Z " fill="#A2A2A2" transform="translate(310,210)"/>
<path d="M0 0 C8.91 0 17.82 0 27 0 C27 19.14 27 38.28 27 58 C21.06 58 15.12 58 9 58 C8.93941406 56.35128906 8.87882813 54.70257813 8.81640625 53.00390625 C8.73202063 50.856761 8.64737165 48.70962609 8.5625 46.5625 C8.52318359 45.47388672 8.48386719 44.38527344 8.44335938 43.26367188 C8.40146484 42.22919922 8.35957031 41.19472656 8.31640625 40.12890625 C8.27974854 39.17056885 8.24309082 38.21223145 8.20532227 37.22485352 C8.24165576 35.02861075 8.24165576 35.02861075 7 34 C4.69 33.67 2.38 33.34 0 33 C0 22.11 0 11.22 0 0 Z " fill="#FBFBFB" transform="translate(185,171)"/>
<path d="M0 0 C16.17 0 32.34 0 49 0 C49 7.85928545 47.5780732 12.93748459 42.35546875 18.8671875 C37.0086364 23.71916629 30.88656557 26.7753327 23.57226562 26.67382812 C18.37874512 25.3133387 14.94137128 21.10493961 11.34887695 17.30249023 C9.93366776 15.80845431 8.48415755 14.35570743 7.02539062 12.90429688 C0 5.68916578 0 5.68916578 0 0 Z " fill="#A3A3A3" transform="translate(156,233)"/>
<path d="M0 0 C33.33 0 66.66 0 101 0 C101.495 1.98 101.495 1.98 102 4 C68.34 4 34.68 4 0 4 C0 2.68 0 1.36 0 0 Z " fill="#3C454E" transform="translate(65,289)"/>
<path d="M0 0 C33.33 0 66.66 0 101 0 C101 1.32 101 2.64 101 4 C67.67 4 34.34 4 0 4 C0 2.68 0 1.36 0 0 Z " fill="#3C454E" transform="translate(65,321)"/>
<path d="M0 0 C33.33 0 66.66 0 101 0 C101 1.32 101 2.64 101 4 C67.67 4 34.34 4 0 4 C0 2.68 0 1.36 0 0 Z " fill="#3C454E" transform="translate(65,305)"/>
<path d="M0 0 C5.32995847 2.16441435 8.71367101 5.3485805 12 10 C6.19363832 10.76149006 0.6952545 10.99846906 -5.1640625 10.96484375 C-7.65104091 10.95552424 -10.13802012 10.94641847 -12.625 10.9375 C-14.52378906 10.92493164 -14.52378906 10.92493164 -16.4609375 10.91210938 C-17.66234375 10.90888672 -18.86375 10.90566406 -20.1015625 10.90234375 C-21.20838379 10.89710693 -22.31520508 10.89187012 -23.45556641 10.88647461 C-25.93530531 10.71034322 -25.93530531 10.71034322 -27 12 C-27.15806531 13.92478813 -27.251135 15.8549921 -27.31640625 17.78515625 C-27.35830078 18.95498047 -27.40019531 20.12480469 -27.44335938 21.33007812 C-27.48267578 22.56177734 -27.52199219 23.79347656 -27.5625 25.0625 C-27.62727539 26.91584961 -27.62727539 26.91584961 -27.69335938 28.80664062 C-27.79984198 31.87097335 -27.90185424 34.93539073 -28 38 C-32.83054551 31.69928847 -32.76318837 25.66399232 -32.26513672 17.93798828 C-31.37326719 11.41896408 -26.68700715 7.33789242 -21.75 3.5 C-15.23070237 -1.04834718 -7.76064609 -1.124478 0 0 Z " fill="#A3A3A3" transform="translate(254,255)"/>
<path d="M0 0 C4.51788689 1.42626721 7.4173318 3.95144661 10.75 7.1875 C15.08591923 11.31701112 19.48143456 14.99983689 24.453125 18.3671875 C26 20 26 20 26.234375 22.6953125 C26.11835938 23.83613281 26.11835938 23.83613281 26 25 C22.69498662 25.38157348 21.35097787 25.25249794 18.60546875 23.27734375 C17.80753906 22.50519531 17.00960938 21.73304688 16.1875 20.9375 C15.32125 20.11765625 14.455 19.2978125 13.5625 18.453125 C12.716875 17.64359375 11.87125 16.8340625 11 16 C9.57088174 14.71974822 8.13418398 13.44786862 6.6875 12.1875 C6.05199219 11.63320312 5.41648437 11.07890625 4.76171875 10.5078125 C2.55118287 8.61586827 0.29274629 6.79120804 -2 5 C-1.125 1.125 -1.125 1.125 0 0 Z " fill="#0B0B0B" transform="translate(310,137)"/>
<path d="M0 0 C10 0 10 0 12.625 1.625 C14.41142544 4.71064394 14.59713581 6.49182714 14 10 C12.375 11.875 12.375 11.875 10 13 C6.75 13.1875 6.75 13.1875 4 13 C4 15.31 4 17.62 4 20 C2.68 20 1.36 20 0 20 C0 13.4 0 6.8 0 0 Z " fill="#373F47" transform="translate(108,360)"/>
<path d="M0 0 C9 0 9 0 12.125 1.5625 C14 4 14 4 14 7.625 C13 11 13 11 10 13 C6.8125 13.125 6.8125 13.125 4 13 C4 15.31 4 17.62 4 20 C2.68 20 1.36 20 0 20 C0 13.4 0 6.8 0 0 Z " fill="#384149" transform="translate(91,360)"/>
<path d="M0 0 C1.67542976 0.28604898 3.34385343 0.61781233 5 1 C5.02895225 4.29164829 5.0467823 7.58326399 5.0625 10.875 C5.07087891 11.81214844 5.07925781 12.74929688 5.08789062 13.71484375 C5.09111328 14.61074219 5.09433594 15.50664062 5.09765625 16.4296875 C5.10289307 17.25710449 5.10812988 18.08452148 5.11352539 18.93701172 C5 21 5 21 4 23 C2.35 22.67 0.7 22.34 -1 22 C-1.02887814 18.52085059 -1.04675687 15.04173169 -1.0625 11.5625 C-1.07087891 10.56927734 -1.07925781 9.57605469 -1.08789062 8.55273438 C-1.09111328 7.60849609 -1.09433594 6.66425781 -1.09765625 5.69140625 C-1.10289307 4.81685791 -1.10812988 3.94230957 -1.11352539 3.04125977 C-1 1 -1 1 0 0 Z " fill="#0A0A0A" transform="translate(305,286)"/>
<path d="M0 0 C5.28 0 10.56 0 16 0 C16 1.32 16 2.64 16 4 C14.02 4 12.04 4 10 4 C10 9.28 10 14.56 10 20 C8.68 20 7.36 20 6 20 C6 14.72 6 9.44 6 4 C4.02 4 2.04 4 0 4 C0 2.68 0 1.36 0 0 Z " fill="#384048" transform="translate(124,360)"/>
<path d="M0 0 C3.5 0.25 3.5 0.25 5.5 2.25 C5.75 5.75 5.75 5.75 5.5 9.25 C3.5 11.25 3.5 11.25 0 11.5 C-3.5 11.25 -3.5 11.25 -5.5 9.25 C-5.75 5.75 -5.75 5.75 -5.5 2.25 C-3.5 0.25 -3.5 0.25 0 0 Z " fill="#080808" transform="translate(355.5,105.75)"/>
<path d="M0 0 C0.66 0.33 1.32 0.66 2 1 C1.02804688 1.87785156 0.05609375 2.75570313 -0.9453125 3.66015625 C-5.44863576 8.91403338 -4.8894459 14.81766655 -4.875 21.4375 C-4.895625 22.64599609 -4.91625 23.85449219 -4.9375 25.09960938 C-4.98441683 28.06709902 -5.00445757 31.0322168 -5 34 C-9.81799108 27.71566381 -9.77573807 21.66300737 -9.28710938 13.95117188 C-8.41854552 8.04848284 -4.08468815 3.98655751 0 0 Z " fill="#9D9D9D" transform="translate(231,259)"/>
<path d="M0 0 C3 1 3 1 4 3 C4.09715342 5.33168218 4.12978217 7.66629957 4.125 10 C4.12757813 11.258125 4.13015625 12.51625 4.1328125 13.8125 C4 17 4 17 3 19 C1.68 19 0.36 19 -1 19 C-1.02683987 16.02077407 -1.04676037 13.04178705 -1.0625 10.0625 C-1.07087891 9.21236328 -1.07925781 8.36222656 -1.08789062 7.48632812 C-1.09111328 6.67744141 -1.09433594 5.86855469 -1.09765625 5.03515625 C-1.10289307 4.2862915 -1.10812988 3.53742676 -1.11352539 2.76586914 C-1 1 -1 1 0 0 Z " fill="#1E1E1E" transform="translate(240,190)"/>
<path d="M0 0 C3.18706942 1.43561686 5.62169105 3.20266329 8.25 5.5 C8.95640625 6.1084375 9.6628125 6.716875 10.390625 7.34375 C12 9 12 9 12 11 C4.77108434 11.48192771 4.77108434 11.48192771 1.5 9.4375 C-0.50478781 6.17971981 -0.28862859 3.75217167 0 0 Z " fill="#0C0C0C" transform="translate(310,152)"/>
<path d="M0 0 C6.03331362 4.98404168 11.5184171 10.41915303 17 16 C16.34 16.33 15.68 16.66 15 17 C8.32879528 14.03992903 3.34374946 9.45535576 0.6875 2.625 C0.460625 1.75875 0.23375 0.8925 0 0 Z " fill="#8E8E8E" transform="translate(157,241)"/>
<path d="M0 0 C0.66 0.33 1.32 0.66 2 1 C1.57847656 1.37769531 1.15695313 1.75539063 0.72265625 2.14453125 C-4.41655355 7.30792556 -4.97419958 11.86618426 -5 19 C-5.33 19 -5.66 19 -6 19 C-6.33 17.02 -6.66 15.04 -7 13 C-7.99 13.495 -7.99 13.495 -9 14 C-7.64002446 7.95566426 -4.14348206 4.36505864 0 0 Z " fill="#8C8C8C" transform="translate(231,259)"/>
<path d="M0 0 C1.65 0 3.3 0 5 0 C5.33 1.65 5.66 3.3 6 5 C4.02 5 2.04 5 0 5 C0 3.35 0 1.7 0 0 Z " fill="#030304" transform="translate(112,364)"/>
<path d="M0 0 C1.65 0 3.3 0 5 0 C5.5625 1.9375 5.5625 1.9375 6 4 C5 5 5 5 2.4375 5.0625 C1.2309375 5.0315625 1.2309375 5.0315625 0 5 C0 3.35 0 1.7 0 0 Z " fill="#010101" transform="translate(95,364)"/>
</svg>
